<?xml version="1.0" standalone="no"?><!DOCTYPE svg PUBLIC "-//W3C//DTD SVG 1.1//EN" "http://www.w3.org/Graphics/SVG/1.1/DTD/svg11.dtd"><svg t="1694499666871" class="icon" viewBox="0 0 1024 1024" version="1.1" xmlns="http://www.w3.org/2000/svg" p-id="6311" xmlns:xlink="http://www.w3.org/1999/xlink" width="64" height="64"><path d="M993.28 460.8 819.2 460.8 819.2 286.72C819.2 256 798.72 256 768 256s-51.2 0-51.2 30.72L716.8 460.8l-174.08 0C512 460.8 512 481.28 512 512s0 51.2 30.72 51.2L716.8 563.2l0 174.08c0 30.72 20.48 30.72 51.2 30.72s51.2 0 51.2-30.72L819.2 563.2l174.08 0c30.72 0 30.72-20.48 30.72-51.2S1024 460.8 993.28 460.8zM378.88 460.8 30.72 460.8C0 460.8 0 481.28 0 512s0 51.2 30.72 51.2l348.16 0C409.6 563.2 409.6 542.72 409.6 512S409.6 460.8 378.88 460.8zM378.88 716.8 30.72 716.8C0 716.8 0 737.28 0 768s0 51.2 30.72 51.2l348.16 0C409.6 819.2 409.6 798.72 409.6 768S409.6 716.8 378.88 716.8zM378.88 204.8 30.72 204.8C0 204.8 0 225.28 0 256s0 51.2 30.72 51.2l348.16 0C409.6 307.2 409.6 286.72 409.6 256S409.6 204.8 378.88 204.8z" p-id="6312" fill="#515151"></path></svg>