<?xml version="1.0" standalone="no"?><!DOCTYPE svg PUBLIC "-//W3C//DTD SVG 1.1//EN" "http://www.w3.org/Graphics/SVG/1.1/DTD/svg11.dtd"><svg t="1694499764088" class="icon" viewBox="0 0 1024 1024" version="1.1" xmlns="http://www.w3.org/2000/svg" p-id="10509" xmlns:xlink="http://www.w3.org/1999/xlink" width="64" height="64"><path d="M562.262661 0.015754c-22.527653 0.708912-41.195674 7.798034-56.08283 21.267365-14.887156 13.390563-24.181782 31.743512-27.805111 54.980077a64.195935 64.195935 0 0 0-45.685451-17.407732c-24.024246 0-43.32241 7.56173-57.736957 22.842725-14.572084 15.280996-22.212581 35.918217-22.842726 62.069199v52.301965c-13.154259-13.075491-30.246919-19.613237-51.199212-19.613237-23.315334 0-40.723066 8.34941-52.380733 25.04823l50.09646 51.199212v-4.332241c1.496592-7.246658 6.222673-10.869987 14.178244-10.869986a31.743512 31.743512 0 0 1 32.688727 32.60996v30.561991l59.863695 58.83971v-207.002354c0-10.239842 2.993185-18.352948 8.74325-24.496854a30.640759 30.640759 0 0 1 23.47287-9.294626c9.767234 0 17.801572 3.150721 23.945477 9.294626a33.082568 33.082568 0 0 1 9.294627 24.418086v271.277058l58.760942 59.942462v-388.87771c0-10.239842 3.150721-18.352948 9.294626-24.496853a31.743512 31.743512 0 0 1 23.394102-9.294627c9.452162 0 17.328964 3.150721 23.472869 9.294627a33.082568 33.082568 0 0 1 9.215858 24.418085v391.161983c0.78768 7.95557 3.859633 14.650852 9.294627 20.164612 5.434993 5.434993 12.130275 8.113106 20.164613 8.113106a29.222935 29.222935 0 0 0 20.63722-8.113106 30.561991 30.561991 0 0 0 9.846003-20.164612v-333.346257c0-10.239842 2.914417-18.352948 8.664482-24.496854a30.640759 30.640759 0 0 1 23.47287-9.294626c9.767234 0 17.565268 3.150721 23.394101 9.294626 5.828833 6.143905 8.664482 14.335779 8.664482 24.418086v459.768927c0 10.869987 3.150721 19.613237 9.294627 26.150982a32.058584 32.058584 0 0 0 22.842725 10.318611 38.596329 38.596329 0 0 0 24.024246-6.537746 63.250719 63.250719 0 0 0 19.06186-24.418086l63.171952-141.703666a43.795019 43.795019 0 0 1 17.959108-21.739973 28.907863 28.907863 0 0 1 24.496854-2.205505c19.692005 7.95557 25.126998 24.733158 16.383748 50.09646l-82.785188 229.84508c-4.332241 13.784403-9.452162 26.859894-15.280996 39.226473l45.764219 45.764219c9.452162-20.322149 18.510484-41.74705 27.253735-64.274703l81.682435-230.947832c10.239842-29.774311 11.027523-55.688989 2.756881-77.901571a76.877586 76.877586 0 0 0-48.5211-46.236827c-22.527653-8.034338-43.32241-7.640498-62.620575 1.023985-19.219397 8.74325-34.342856 25.04823-45.212843 49.072475l-30.483223 75.14469c-0.78768 2.205505-2.205505 3.229489-4.332241 3.229489-2.205505 0-3.308257-1.417824-3.308257-4.332241v-374.699466c0-27.568807-7.876802-49.230012-23.394101-64.82608-15.674836-15.596068-36.548361-23.394102-62.699343-23.394101a68.606945 68.606945 0 0 0-48.993708 18.510484c-3.623329-24.024246-12.524115-42.692266-26.702359-56.161597-14.178243-13.390563-33.240104-20.479685-57.185581-21.267365z m320.270765 1014.138244a37.020969 37.020969 0 0 0 25.599606 9.846002c9.846002 0 18.116644-3.465793 25.04823-10.397379a33.476408 33.476408 0 0 0 10.397378-24.418085c0-9.452162-3.308257-18.195412-9.846002-26.229751L103.675254 134.000154a36.390825 36.390825 0 0 0-25.04823-9.846003 34.421624 34.421624 0 0 0-25.04823 10.948755 34.421624 34.421624 0 0 0-10.948754 25.04823c0 9.452162 3.308257 17.801572 9.846002 25.04823z m-135.087153-57.736958l-45.685451-45.685451c-45.055307 27.568807-96.648359 41.35321-154.700389 41.35321-83.4941-0.78768-148.556484-26.308518-195.029615-76.798819-46.473131-50.411532-70.103537-122.87811-70.812449-217.399732v-167.697112l-62.069199-60.966447v236.304057c1.417824 109.72385 31.743512 195.344687 90.977062 257.177582 59.154782 61.675359 138.868017 92.946262 239.060937 93.655174 77.744035 0 143.830403-20.007077 198.259104-59.863694z" p-id="10510" fill="#515151"></path></svg>