<?xml version="1.0" standalone="no"?><!DOCTYPE svg PUBLIC "-//W3C//DTD SVG 1.1//EN" "http://www.w3.org/Graphics/SVG/1.1/DTD/svg11.dtd"><svg t="1694081098093" class="icon" viewBox="0 0 1024 1024" version="1.1" xmlns="http://www.w3.org/2000/svg" p-id="34035" xmlns:xlink="http://www.w3.org/1999/xlink" width="200" height="200"><path d="M378.88 915.316364c-11.869091 0-23.738182-4.421818-32.814545-13.498182l-260.654546-260.654546a45.149091 45.149091 0 0 1-13.498182-32.814545c0-12.334545 4.887273-23.970909 13.498182-32.814546l308.596364-308.596363a23.179636 23.179636 0 1 1 32.814545 32.814545L118.458182 608.581818l260.654545 260.421818 407.04-407.272727c71.68-71.68 71.68-188.509091 0-260.421818s-188.509091-71.68-260.421818 0a23.179636 23.179636 0 1 1-32.814545-32.814546c89.832727-89.832727 236.218182-89.832727 326.050909 0s89.832727 236.218182 0 326.05091l-407.272728 407.272727c-9.076364 9.076364-20.945455 13.498182-32.814545 13.498182z" fill="#2c2c2c" p-id="34036"></path><path d="M639.534545 451.723636a103.936 103.936 0 0 1-73.541818-177.338181 103.936 103.936 0 0 1 146.850909 0 103.936 103.936 0 0 1 0 146.850909c-20.014545 20.247273-46.545455 30.487273-73.309091 30.487272z m0-161.28c-14.661818 0-29.323636 5.585455-40.494545 16.756364-22.341818 22.341818-22.341818 58.647273 0 81.221818s58.88 22.341818 81.221818 0 22.341818-58.647273 0-81.221818c-11.170909-11.170909-26.065455-16.756364-40.727273-16.756364z" fill="#2c2c2c" p-id="34037"></path></svg>