<?xml version="1.0" standalone="no"?><!DOCTYPE svg PUBLIC "-//W3C//DTD SVG 1.1//EN" "http://www.w3.org/Graphics/SVG/1.1/DTD/svg11.dtd"><svg t="1694059990989" class="icon" viewBox="0 0 1024 1024" version="1.1" xmlns="http://www.w3.org/2000/svg" p-id="19253" width="200" height="200" xmlns:xlink="http://www.w3.org/1999/xlink"><path d="M810.666667 298.666667 384 298.666667 384 213.333333 810.666667 213.333333M640 640 384 640 384 554.666667 640 554.666667M810.666667 469.333333 384 469.333333 384 384 810.666667 384M853.333333 85.333333 341.333333 85.333333C294.4 85.333333 256 123.733333 256 170.666667L256 682.666667C256 729.6 294.4 768 341.333333 768L853.333333 768C900.266667 768 938.666667 729.6 938.666667 682.666667L938.666667 170.666667C938.666667 123.733333 900.266667 85.333333 853.333333 85.333333M170.666667 256 85.333333 256 85.333333 853.333333C85.333333 900.266667 123.733333 938.666667 170.666667 938.666667L768 938.666667 768 853.333333 170.666667 853.333333 170.666667 256Z" p-id="19254" fill="#515151"></path></svg>