<?xml version="1.0" standalone="no"?><!DOCTYPE svg PUBLIC "-//W3C//DTD SVG 1.1//EN" "http://www.w3.org/Graphics/SVG/1.1/DTD/svg11.dtd"><svg t="1694009553606" class="icon" viewBox="0 0 1152 1024" version="1.1" xmlns="http://www.w3.org/2000/svg" p-id="7993" xmlns:xlink="http://www.w3.org/1999/xlink" width="225" height="200"><path d="M1087.8 192c-12.4 0-25 3.6-36.4 11.4L832 340.2v-116.6c0-52.8-46.4-95.6-103.6-95.6H103.6C46.4 128 0 170.8 0 223.6v576.8C0 853.2 46.4 896 103.6 896h624.8c57.2 0 103.6-42.8 103.6-95.6v-116.6l219.4 136.6c11.4 8 24.2 11.4 36.4 11.4 33.2 0 64.2-26 64.2-63V255C1152 218 1121 192 1087.8 192zM736 797.8c-1.2 0.8-3.6 2.2-7.6 2.2H103.6c-4 0-6.4-1.2-7.6-2.2V226.2c1.2-0.8 3.6-2.2 7.6-2.2h624.8c4 0 6.4 1.2 7.6 2.2v571.6z m320-87.4l-224-139.6v-117.4l224-139.6v396.6zM576 464h-112v-112c0-17.6-14.4-32-32-32h-32c-17.6 0-32 14.4-32 32v112h-112c-17.6 0-32 14.4-32 32v32c0 17.6 14.4 32 32 32h112v112c0 17.6 14.4 32 32 32h32c17.6 0 32-14.4 32-32v-112h112c17.6 0 32-14.4 32-32v-32c0-17.6-14.4-32-32-32z" p-id="7994" fill="#515151"></path></svg>